<svg xmlns="http://www.w3.org/2000/svg" width="500" height="500" viewBox="0 0 500 500" version="1.1">
	<path d="M 308 75.931 C 291.228 78.267, 277.916 85.004, 265.460 97.460 C 255.198 107.722, 249.655 117.085, 245.866 130.557 C 242.779 141.534, 242.789 157.294, 245.890 168.443 C 253.340 195.224, 275.205 216.114, 302.136 222.181 C 309.164 223.764, 325.954 223.714, 333.394 222.087 C 356.698 216.992, 376.882 200.110, 385.944 178.135 C 390.340 167.476, 391.493 161.394, 391.467 149 C 391.439 135.593, 389.380 127.491, 382.700 114.500 C 376.869 103.161, 362.611 88.926, 351.910 83.760 C 337.981 77.036, 321.355 74.072, 308 75.931 M 95 112.892 L 95 145.783 97.250 146.226 C 98.487 146.470, 104.337 146.631, 110.250 146.584 C 116.162 146.538, 121 146.650, 121 146.833 C 121 147.016, 115.375 163.075, 108.500 182.520 C 101.625 201.964, 96 218.281, 96 218.780 C 96 219.317, 124.290 219.574, 165.250 219.409 L 234.500 219.132 234.282 186.932 C 234.163 169.222, 233.788 154.455, 233.449 154.116 C 233.110 153.777, 227.583 153.477, 221.167 153.448 C 210.239 153.399, 209.509 153.273, 209.640 151.448 C 209.717 150.377, 215.043 134.650, 221.474 116.500 C 227.906 98.350, 233.407 82.713, 233.701 81.750 C 234.204 80.095, 230.454 80, 164.617 80 L 95 80 95 112.892 M 168.344 246.250 C 166.575 249.106, 102 381.394, 102 382.162 C 102 382.623, 116.114 383, 133.364 383 L 164.729 383 168.261 375.750 C 195.228 320.390, 215.428 279.080, 222.754 264.305 C 227.717 254.298, 231.527 245.860, 231.222 245.555 C 230.916 245.250, 216.818 245, 199.892 245 C 176.353 245, 168.936 245.294, 168.344 246.250 M 276.870 247.560 C 262.599 251.968, 252 265.978, 252 280.433 C 252 295.872, 260.884 307.199, 276.969 312.267 C 280.839 313.486, 283.855 314.938, 283.671 315.492 C 283.473 316.088, 277.548 316.613, 269.168 316.777 L 255 317.055 255.071 347.777 L 255.141 378.500 257.101 374.081 C 259.253 369.231, 260.018 369.398, 262.461 375.250 C 264.174 379.351, 264.007 379.611, 260.856 377.750 C 259.162 376.750, 258.648 376.750, 258.286 377.750 C 258.037 378.438, 257.167 379, 256.353 379 C 255.288 379, 254.961 379.903, 255.187 382.227 L 255.500 385.454 305.569 385.804 C 358.041 386.171, 366.879 385.689, 374.391 382.053 C 398.134 370.559, 399.004 333.085, 375.793 321.692 C 372.882 320.263, 369.712 318.862, 368.750 318.578 C 367.788 318.295, 366.999 317.486, 366.999 316.781 C 366.998 315.812, 369.860 315.500, 378.749 315.500 L 390.500 315.500 390.500 281 L 390.500 246.500 336 246.315 C 291.176 246.163, 280.678 246.384, 276.870 247.560 M 265.644 373.690 C 264.254 375.079, 265.094 378.212, 266.989 378.707 C 268.083 378.993, 268.743 379.607, 268.457 380.070 C 268.170 380.533, 267.163 380.641, 266.218 380.309 C 264.890 379.843, 264.760 379.987, 265.644 380.947 C 267.948 383.447, 270.481 381.735, 270.797 377.463 C 271.063 373.848, 270.852 373.424, 268.690 373.245 C 267.369 373.136, 265.998 373.336, 265.644 373.690 M 274.152 373.885 C 271.923 375.297, 273.206 378.500, 276 378.500 C 277.625 378.500, 278.597 377.855, 278.835 376.620 C 279.146 375.002, 277.589 373.031, 276 373.031 C 275.725 373.031, 274.893 373.415, 274.152 373.885 M 280.529 373.805 C 280.238 374.095, 280 375.383, 280 376.667 C 280 379.680, 282.717 379.749, 283.294 376.750 L 283.728 374.500 283.864 376.750 C 283.939 377.988, 284.480 379, 285.066 379 C 285.653 379, 285.990 377.762, 285.816 376.250 C 285.582 374.213, 284.924 373.471, 283.279 373.388 C 282.057 373.326, 280.820 373.514, 280.529 373.805 M 288.036 374.457 C 287.012 375.690, 287.005 376.301, 288 377.500 C 289.396 379.182, 293 379.543, 293 378 C 293 377.450, 292.325 377, 291.500 377 C 290.675 377, 290 376.502, 290 375.893 C 290 375.284, 290.713 375.059, 291.584 375.394 C 292.589 375.779, 293.015 375.545, 292.751 374.751 C 292.126 372.873, 289.486 372.709, 288.036 374.457 M 294.633 375.250 C 295.056 376.488, 295.424 378.512, 295.451 379.750 C 295.523 383.039, 296.893 382.500, 298.551 378.532 C 300.417 374.067, 300.388 371.904, 298.496 374.403 C 297.197 376.120, 296.993 376.144, 296.421 374.653 C 295.440 372.099, 293.750 372.663, 294.633 375.250 M 267 376 C 267 376.550, 267.450 377, 268 377 C 268.550 377, 269 376.550, 269 376 C 269 375.450, 268.550 375, 268 375 C 267.450 375, 267 375.450, 267 376" stroke="none" fill="#000000" fill-rule="evenodd"/>
</svg>