<svg preserveAspectRatio="none" width="100%" height="100%" overflow="visible" style="display: block;" viewBox="0 0 20 20" fill="none" xmlns="http://www.w3.org/2000/svg">
<g id="External Link">
<path id="Vector" d="M16.6504 2.49186C16.6193 2.49285 16.5884 2.49556 16.5576 2.5H12.5C12.3896 2.49844 12.2799 2.51884 12.1775 2.56002C12.075 2.6012 11.9817 2.66233 11.9031 2.73987C11.8244 2.81741 11.762 2.9098 11.7194 3.01168C11.6767 3.11356 11.6548 3.2229 11.6548 3.33334C11.6548 3.44377 11.6767 3.55311 11.7194 3.65499C11.762 3.75687 11.8244 3.84927 11.9031 3.9268C11.9817 4.00434 12.075 4.06547 12.1775 4.10665C12.2799 4.14783 12.3896 4.16823 12.5 4.16667H14.6549L6.91081 11.9108C6.83083 11.9876 6.76698 12.0796 6.72299 12.1813C6.679 12.2831 6.65576 12.3926 6.65464 12.5035C6.65351 12.6144 6.67451 12.7244 6.71642 12.827C6.75833 12.9297 6.8203 13.0229 6.8987 13.1013C6.97709 13.1797 7.07035 13.2417 7.173 13.2836C7.27564 13.3255 7.38562 13.3465 7.49649 13.3454C7.60736 13.3442 7.71688 13.321 7.81866 13.277C7.92043 13.233 8.01241 13.1692 8.08919 13.0892L15.8333 5.34505V7.5C15.8318 7.61043 15.8522 7.72007 15.8934 7.82254C15.9345 7.92501 15.9957 8.01828 16.0732 8.09692C16.1507 8.17556 16.2431 8.23801 16.345 8.28063C16.4469 8.32326 16.5562 8.34521 16.6667 8.34521C16.7771 8.34521 16.8864 8.32326 16.9883 8.28063C17.0902 8.23801 17.1826 8.17556 17.2601 8.09692C17.3377 8.01828 17.3988 7.92501 17.44 7.82254C17.4812 7.72007 17.5016 7.61043 17.5 7.5V3.43913C17.5166 3.31915 17.5068 3.197 17.4714 3.08117C17.436 2.96535 17.3757 2.85864 17.2949 2.76847C17.214 2.6783 17.1144 2.60684 17.0031 2.55907C16.8918 2.5113 16.7715 2.48837 16.6504 2.49186ZM4.16667 2.5C3.25578 2.5 2.5 3.25578 2.5 4.16667V15.8333C2.5 16.7442 3.25578 17.5 4.16667 17.5H15.8333C16.7442 17.5 17.5 16.7442 17.5 15.8333V10.8333C17.5016 10.7229 17.4812 10.6133 17.44 10.5108C17.3988 10.4083 17.3377 10.3151 17.2601 10.2364C17.1826 10.1578 17.0902 10.0953 16.9883 10.0527C16.8864 10.0101 16.7771 9.98814 16.6667 9.98814C16.5562 9.98814 16.4469 10.0101 16.345 10.0527C16.2431 10.0953 16.1507 10.1578 16.0732 10.2364C15.9957 10.3151 15.9345 10.4083 15.8934 10.5108C15.8522 10.6133 15.8318 10.7229 15.8333 10.8333V15.8333H4.16667V4.16667H9.16667C9.27709 4.16823 9.38673 4.14783 9.4892 4.10665C9.59168 4.06547 9.68494 4.00434 9.76359 3.9268C9.84223 3.84927 9.90467 3.75687 9.9473 3.65499C9.98992 3.55311 10.0119 3.44377 10.0119 3.33334C10.0119 3.2229 9.98992 3.11356 9.9473 3.01168C9.90467 2.9098 9.84223 2.81741 9.76359 2.73987C9.68494 2.66233 9.59168 2.6012 9.4892 2.56002C9.38673 2.51884 9.27709 2.49844 9.16667 2.5H4.16667Z" fill="var(--fill-0, #00315C)"/>
</g>
</svg>
