<svg width="195" height="195" viewBox="0 0 195 195" fill="none" xmlns="http://www.w3.org/2000/svg">
<path fill-rule="evenodd" clip-rule="evenodd" d="M154.41 18.497L18.4953 154.41C20.5115 157.171 22.6572 159.842 24.98 162.426L162.426 24.9798C159.842 22.6589 157.169 20.5113 154.41 18.497ZM40.2211 176.135L176.134 40.2221C174.122 37.4634 171.974 34.7903 169.653 32.2067L32.2057 169.654C34.7912 171.975 37.4623 174.121 40.2211 176.135ZM58.6844 186.669L186.668 58.6841C185.246 55.4209 183.625 52.1804 181.828 49.0257L49.024 181.83C52.1788 183.625 55.4192 185.245 58.6844 186.669ZM81.0439 193.263L193.261 81.0454C192.583 77.0815 191.685 73.1595 190.523 69.2831L69.2835 190.523C73.1599 191.686 77.08 192.583 81.0439 193.263ZM109.428 193.874L193.875 109.427C194.488 104.391 194.73 99.2886 194.596 94.2071L94.2062 194.597C99.2877 194.729 104.39 194.489 109.428 193.874ZM166.127 166.129C177.187 155.067 185.027 142.016 189.648 128.108L128.108 189.649C142.014 185.027 155.068 177.188 166.127 166.129ZM135.949 7.96255L7.96165 135.948C9.38576 139.211 11.0079 142.453 12.8033 145.606L145.607 12.8022C142.453 11.0069 139.212 9.38666 135.949 7.96255ZM113.589 1.37148L1.37028 113.589C2.04997 117.553 2.9467 121.473 4.10807 125.349L125.348 4.10737C121.472 2.9479 117.553 2.04927 113.589 1.37148ZM85.2046 0.758321L0.757493 85.2054C0.14444 90.2431 -0.0954506 95.3456 0.0340141 100.427L100.426 0.0348421C95.3466 -0.0965264 90.2423 0.143364 85.2046 0.758321ZM66.5236 4.98498L4.98412 66.5245C9.60487 52.6166 17.447 39.5654 28.5048 28.5057C39.5645 17.446 52.6176 9.60573 66.5236 4.98498Z" fill="white"/>
</svg>
