<svg width="113" height="115" viewBox="0 0 113 115" fill="none" xmlns="http://www.w3.org/2000/svg">
<path d="M20.359 47.8404L39.6756 53.8675L46.3808 38.4862L20.359 47.8404Z" fill="#212327"/>
<path d="M36.4152 54.895L102.733 80.2632L103.741 77.7991L46.1687 31.6183L20.683 47.6685L42.8373 46.2299L36.4152 54.895Z" fill="#BA5439"/>
<path d="M50.7785 4.28971L103.488 76.4761C103.978 77.1472 104.174 78.4848 103.36 78.6514C103.016 78.7218 102.899 78.5422 102.62 78.3285C85.979 65.5514 52.6158 39.8629 49.0512 36.8343C46.1879 34.4016 44.8901 32.277 44.4228 31.0573C44.2376 30.5738 44.2358 30.0499 44.277 29.5338L46.1634 5.86055C46.7919 2.83981 48.2856 2.59804 49.3943 3.03314C49.9854 3.26512 50.404 3.77689 50.7785 4.28971Z" fill="#FC9073"/>
<path d="M44.5111 48.102L102.189 78.9965C102.817 79.3327 103.546 79.7777 103.141 80.3632C102.496 81.2956 101.052 81.3895 99.9255 81.2578L27.3117 72.7678C25.49 72.3161 24.8139 71.2243 24.649 70.2278C24.4919 69.2786 25.0486 68.4027 25.655 67.6557L37.0651 53.5986C41.234 48.2112 43.7662 47.6895 44.5111 48.102Z" fill="#FC9073"/>
</svg>
